/* XPM */
static const char *cdrom1_eject_xpm[] = {
/* columns rows colors chars-per-pixel */
"32 32 2 1 ",
"  c None",
". c black",
/* pixels */
".                              .",
" .           ..  ...          . ",
"  .         .    .  .        .  ",
"   .        .    .  .       .   ",
"    .       .    .  .      .    ",
"     .       ..  ...      .     ",
"      .                  .      ",
"       .    ........    .       ",
"        . ..        .. .        ",
"         .   ......   .         ",
"        . ...      ... .        ",
"       . ... ...... ... .       ",
"      . .  ..      ..  . .      ",
"     .  . .  ......  . .  .     ",
"     . . .  . .  . .  . . .     ",
"    .  . . .  ....  . . .  .    ",
"    . . . .  . .. .  . . . .    ",
"    . . . . . .  . . . . . .    ",
"    . . . . ..    .. . . . .    ",
"    . . . . .      . . . . .    ",
"    . . . ...      ... . . .    ",
"    . . . .  .    .  . . . .    ",
"    .  . . .  ....  . . .  .    ",
"     . ...  .      .  ... .     ",
"     . .. .  ......  . .. .     ",
"      . .  ..      ..  . .      ",
"     . . ..  ......  .. . .     ",
"    .   .  ..      ..  .   .    ",
"   .     .   ......   .     .   ",
"  .       ..        ..       .  ",
" .          ........          . ",
".                              ."
};
