/* XPM */
static const char *floppya_eject_xpm[] = {
/* columns rows colors chars-per-pixel */
"32 32 2 1 ",
"  c None",
". c black",
/* pixels */
".              .               .",
" .            . .             . ",
"  .           . .   .        .  ",
"   .          ...           .   ",
"    .        .. ..  .      .    ",
"     .       .. ..        .     ",
"      .                  .      ",
"     ......................     ",
"     ....              ....     ",
"     .  ................  .     ",
"     .  . .          . .  .     ",
"     .... ............ ....     ",
"     ....   .      .   ....     ",
"     .... ............ ....     ",
"     ....     .  .     ....     ",
"     .... ............ ....     ",
"     ....      ..      ....     ",
"     .... ............ ....     ",
"     ....    .    .    ....     ",
"     .... ............ ....     ",
"     ....  .        .  ....     ",
"     ......................     ",
"     ......................     ",
"     ......................     ",
"     ......................     ",
"     ....... . . . . ......     ",
"     ...... ..... . . .....     ",
"    ........ ... . . .......    ",
"   . ...... ..... . . ..... .   ",
"  .   ...... ... . . ......  .  ",
" .     .... . . . . . .....   . ",
".       .... . . . . ......    ."
};
