/* XPM */
static char *floppya_xpm[] = {
"16 16 4 1",
"  c #000000",
"! c #808080",
"# c #C0C0C0",
"$ c #FFFFFF",
"$$$$$$$$$$$$$$$ ",
"$#$$$$!!!$$$$ # ",
"$#$$$!$$$!$$$ # ",
"$#$$!$$$$$!$$## ",
"$#$$!$$$$$!$$## ",
"$#$$!!!!!!!$$## ",
"$#$$!$$$$$!$$## ",
"$#$$!$$$$$!$$## ",
"$##$$$$$$$$$### ",
"$############## ",
"$####      #### ",
"$###  !!!! #### ",
"$### !!!!! #### ",
"$### !!!!! #### ",
"$###       #### ",
"                "};
