/* XPM */
static char *power_xpm[] = {
"16 16 3 1",
"  c None",
"! c #000000",
"# c #00EE00",
"       ##       ",
"    ## ## ##    ",
"   ### ## ###   ",
"  #### ## ####  ",
" ####  ##  #### ",
"####   ##   ####",
"###    ##    ###",
"###    ##    ###",
"###    ##    ###",
"###    ##    ###",
"####        ####",
" ####      #### ",
"  ####    ####  ",
"   ##########   ",
"    ########    ",
"     ######     "};
